<svg width="1800" height="399" viewBox="0 0 1800 399" fill="none" xmlns="http://www.w3.org/2000/svg">
<g clip-path="url(#clip0_148_8446)">
<rect width="1800" height="399" rx="22" fill="url(#paint0_linear_148_8446)"/>
<path fill-rule="evenodd" clip-rule="evenodd" d="M1392.47 24.9569C1403.02 -14.4291 1379.65 -54.913 1340.26 -65.4665L675.957 -243.466C636.571 -254.019 596.087 -230.646 585.534 -191.26L407.534 473.043C396.981 512.429 420.354 552.913 459.74 563.466L1124.04 741.466C1163.43 752.019 1203.91 728.646 1214.47 689.26L1392.47 24.9569ZM1008.78 246.483C1019.34 207.097 995.965 166.613 956.579 156.059L897.475 140.222C858.089 129.669 817.605 153.042 807.052 192.428L791.215 251.532C780.662 290.918 804.035 331.402 843.421 341.956L902.525 357.792C941.911 368.346 982.395 344.972 992.948 305.586L1008.78 246.483Z" fill="url(#paint1_linear_148_8446)"/>
<path d="M841.5 82C841.5 76.4087 841.5 73.6131 842.413 71.4078C843.631 68.4675 845.967 66.1314 848.908 64.9134C851.113 64 853.909 64 859.5 64H940.5C946.091 64 948.887 64 951.092 64.9134C954.033 66.1314 956.369 68.4675 957.587 71.4078C958.5 73.6131 958.5 76.4087 958.5 82V90C958.5 95.5913 958.5 98.3869 957.587 100.592C956.369 103.533 954.033 105.869 951.092 107.087C948.887 108 946.091 108 940.5 108H859.5C853.909 108 851.113 108 848.908 107.087C845.967 105.869 843.631 103.533 842.413 100.592C841.5 98.3869 841.5 95.5913 841.5 90V82Z" fill="url(#paint2_linear_148_8446)"/>
<path d="M842.5 82C842.5 79.1907 842.501 77.1338 842.612 75.5022C842.723 73.8796 842.939 72.751 843.337 71.7905C844.454 69.0952 846.595 66.9538 849.29 65.8373C850.251 65.4395 851.38 65.2226 853.002 65.1119C854.634 65.0005 856.691 65 859.5 65H940.5C943.309 65 945.366 65.0005 946.998 65.1119C948.62 65.2226 949.749 65.4395 950.71 65.8373C953.405 66.9538 955.546 69.0952 956.663 71.7905C957.061 72.751 957.277 73.8796 957.388 75.5022C957.499 77.1338 957.5 79.1907 957.5 82V90C957.5 92.8093 957.499 94.8662 957.388 96.4978C957.277 98.1204 957.061 99.2491 956.663 100.21C955.546 102.905 953.405 105.046 950.71 106.163C949.749 106.561 948.62 106.777 946.998 106.888C945.366 106.999 943.309 107 940.5 107H859.5C856.691 107 854.634 106.999 853.002 106.888C851.38 106.777 850.251 106.561 849.29 106.163C846.595 105.046 844.454 102.905 843.337 100.21C842.939 99.2491 842.723 98.1204 842.612 96.4978C842.501 94.8662 842.5 92.8093 842.5 90V82Z" stroke="#111111" stroke-opacity="0.1" stroke-width="2"/>
<path fill-rule="evenodd" clip-rule="evenodd" d="M863.5 95C868.471 95 872.5 90.9706 872.5 86C872.5 81.0294 868.471 77 863.5 77C858.529 77 854.5 81.0294 854.5 86C854.5 90.9706 858.529 95 863.5 95ZM864.25 82C864.25 81.5858 863.914 81.25 863.5 81.25C863.086 81.25 862.75 81.5858 862.75 82V82.5C862.75 82.9142 863.086 83.25 863.5 83.25C863.914 83.25 864.25 82.9142 864.25 82.5V82ZM863 84.25C862.586 84.25 862.25 84.5858 862.25 85C862.25 85.3266 862.459 85.6044 862.75 85.7073V89.2927C862.459 89.3956 862.25 89.6734 862.25 90C862.25 90.4142 862.586 90.75 863 90.75H864C864.414 90.75 864.75 90.4142 864.75 90C864.75 89.6734 864.541 89.3956 864.25 89.2927V85C864.25 84.5858 863.914 84.25 863.5 84.25H863Z" fill="url(#paint3_linear_148_8446)"/>
<path d="M886.021 92.7109C882.462 92.7109 880.212 90.1973 880.212 86.1543C880.212 82.1377 882.479 79.6064 886.021 79.6064C888.896 79.6064 891.066 81.373 891.4 84.0186H889.449C889.098 82.3926 887.744 81.3291 886.021 81.3291C883.719 81.3291 882.225 83.2188 882.225 86.1543C882.225 89.1162 883.701 90.9883 886.03 90.9883C887.797 90.9883 889.054 90.083 889.449 88.5537H891.409C890.926 91.1729 888.939 92.7109 886.021 92.7109ZM896.929 92.6758C894.283 92.6758 892.543 90.8564 892.543 87.877C892.543 84.9062 894.292 83.0869 896.929 83.0869C899.565 83.0869 901.314 84.9062 901.314 87.877C901.314 90.8564 899.574 92.6758 896.929 92.6758ZM896.929 91.1113C898.423 91.1113 899.381 89.9336 899.381 87.877C899.381 85.8291 898.414 84.6514 896.929 84.6514C895.443 84.6514 894.477 85.8291 894.477 87.877C894.477 89.9336 895.443 91.1113 896.929 91.1113ZM902.782 92.5V83.2539H904.593V84.8008H904.637C905.138 83.7461 906.122 83.0957 907.546 83.0957C909.585 83.0957 910.754 84.3965 910.754 86.5146V92.5H908.847V86.8838C908.847 85.4951 908.196 84.7305 906.878 84.7305C905.542 84.7305 904.681 85.6797 904.681 87.1123V92.5H902.782ZM913.145 81.0654H915.052V83.2539H916.81V84.7568H915.052V89.8545C915.052 90.6543 915.403 91.0146 916.177 91.0146C916.37 91.0146 916.678 90.9971 916.801 90.9707V92.4736C916.59 92.5264 916.168 92.5615 915.746 92.5615C913.874 92.5615 913.145 91.8496 913.145 90.0654V84.7568H911.8V83.2539H913.145V81.0654ZM921.468 91.1553C922.795 91.1553 923.832 90.2412 923.832 89.0371V88.3076L921.556 88.4482C920.422 88.5273 919.78 89.0283 919.78 89.8193C919.78 90.6279 920.448 91.1553 921.468 91.1553ZM920.94 92.6582C919.13 92.6582 917.864 91.5332 917.864 89.8721C917.864 88.2549 919.104 87.2617 921.301 87.1387L923.832 86.9893V86.2773C923.832 85.249 923.138 84.6338 921.978 84.6338C920.879 84.6338 920.193 85.1611 920.026 85.9873H918.233C918.339 84.3174 919.763 83.0869 922.048 83.0869C924.289 83.0869 925.722 84.2734 925.722 86.1279V92.5H923.902V90.9795H923.858C923.322 92.0078 922.153 92.6582 920.94 92.6582ZM935.504 86.4355H933.693C933.5 85.4512 932.762 84.6689 931.522 84.6689C930.055 84.6689 929.088 85.8906 929.088 87.877C929.088 89.9072 930.063 91.085 931.54 91.085C932.709 91.085 933.474 90.4434 933.693 89.3711H935.521C935.319 91.3398 933.746 92.6758 931.522 92.6758C928.877 92.6758 927.154 90.8652 927.154 87.877C927.154 84.9414 928.877 83.0869 931.505 83.0869C933.887 83.0869 935.337 84.6162 935.504 86.4355ZM937.42 81.0654H939.327V83.2539H941.085V84.7568H939.327V89.8545C939.327 90.6543 939.679 91.0146 940.452 91.0146C940.646 91.0146 940.953 90.9971 941.076 90.9707V92.4736C940.865 92.5264 940.443 92.5615 940.021 92.5615C938.149 92.5615 937.42 91.8496 937.42 90.0654V84.7568H936.075V83.2539H937.42V81.0654Z" fill="url(#paint4_linear_148_8446)"/>
<path d="M657.75 191.188V198H629.219V152.906H637.281V191.188H657.75ZM675.281 198.656C665.562 198.656 659.25 192.188 659.25 181.438C659.25 170.75 665.625 164.188 675.281 164.188C684.938 164.188 691.312 170.719 691.312 181.438C691.312 192.188 685 198.656 675.281 198.656ZM675.281 192.5C680.219 192.5 683.406 188.5 683.406 181.438C683.406 174.406 680.219 170.375 675.281 170.375C670.375 170.375 667.156 174.406 667.156 181.438C667.156 188.5 670.344 192.5 675.281 192.5ZM709.469 198.656C699.75 198.656 693.438 192.188 693.438 181.438C693.438 170.75 699.812 164.188 709.469 164.188C719.125 164.188 725.5 170.719 725.5 181.438C725.5 192.188 719.188 198.656 709.469 198.656ZM709.469 192.5C714.406 192.5 717.594 188.5 717.594 181.438C717.594 174.406 714.406 170.375 709.469 170.375C704.562 170.375 701.344 174.406 701.344 181.438C701.344 188.5 704.531 192.5 709.469 192.5ZM737.094 178.688L749.562 164.875H758.531L745.281 179.125L759.094 198H750.094L739.625 183.844L737 186.5V198H729.219V152.906H737V178.688H737.094ZM760.875 198V164.875H768.656V198H760.875ZM764.75 160.531C762.344 160.531 760.438 158.656 760.438 156.312C760.438 153.938 762.344 152.062 764.75 152.062C767.188 152.062 769.094 153.938 769.094 156.312C769.094 158.656 767.188 160.531 764.75 160.531ZM773.688 198V164.875H781.156V170.562H781.312C783.094 166.625 786.625 164.25 791.719 164.25C799.031 164.25 803.188 168.938 803.188 176.594V198H795.406V178.156C795.406 173.469 793.219 170.844 788.781 170.844C784.312 170.844 781.469 174.062 781.469 178.812V198H773.688ZM822.562 191.844C827.531 191.844 830.75 187.812 830.75 181.344C830.75 174.906 827.531 170.719 822.562 170.719C817.656 170.719 814.531 174.844 814.531 181.344C814.531 187.906 817.656 191.844 822.562 191.844ZM822.531 210.5C814.344 210.5 808.469 206.312 807.688 200.5H815.406C816.25 203.031 819.094 204.75 822.781 204.75C827.844 204.75 830.75 201.906 830.75 197.688V192.094H830.562C828.844 195.656 824.938 198.031 820.188 198.031C812 198.031 806.562 191.625 806.562 181.312C806.562 170.844 811.875 164.312 820.344 164.312C825.062 164.312 828.875 166.75 830.781 170.562H830.906V164.875H838.531V197.469C838.531 205.375 832.188 210.5 822.531 210.5ZM856.844 198V170.875H852.312V164.969H856.844V162.031C856.844 155.594 859.906 152.562 867.094 152.562C868.625 152.562 870.312 152.719 871.281 152.906V158.344C870.625 158.25 869.719 158.156 868.812 158.156C865.844 158.156 864.5 159.562 864.5 162.25V164.969H871.125V170.875H864.625V198H856.844ZM888.219 198.656C878.5 198.656 872.188 192.188 872.188 181.438C872.188 170.75 878.562 164.188 888.219 164.188C897.875 164.188 904.25 170.719 904.25 181.438C904.25 192.188 897.938 198.656 888.219 198.656ZM888.219 192.5C893.156 192.5 896.344 188.5 896.344 181.438C896.344 174.406 893.156 170.375 888.219 170.375C883.312 170.375 880.094 174.406 880.094 181.438C880.094 188.5 883.281 192.5 888.219 192.5ZM907.75 198V164.875H915.219V170.656H915.375C916.5 166.625 919.406 164.312 923.312 164.312C924.312 164.312 925.188 164.5 925.75 164.625V171.656C925.094 171.406 923.906 171.219 922.594 171.219C918.188 171.219 915.531 174.062 915.531 178.719V198H907.75ZM968.75 176.688H961.406C960.781 173.156 958.312 170.5 954.156 170.5C949.25 170.5 946.094 174.625 946.094 181.438C946.094 188.375 949.281 192.375 954.219 192.375C958.156 192.375 960.719 190.125 961.438 186.375H968.781C968.156 193.781 962.438 198.656 954.125 198.656C944.438 198.656 938.188 192.188 938.188 181.438C938.188 170.844 944.438 164.188 954.062 164.188C962.812 164.188 968.219 169.719 968.75 176.688ZM986.594 198.656C976.875 198.656 970.562 192.188 970.562 181.438C970.562 170.75 976.938 164.188 986.594 164.188C996.25 164.188 1002.62 170.719 1002.62 181.438C1002.62 192.188 996.312 198.656 986.594 198.656ZM986.594 192.5C991.531 192.5 994.719 188.5 994.719 181.438C994.719 174.406 991.531 170.375 986.594 170.375C981.688 170.375 978.469 174.406 978.469 181.438C978.469 188.5 981.656 192.5 986.594 192.5ZM1006.12 198V164.875H1013.59V170.562H1013.75C1015.53 166.625 1019.06 164.25 1024.16 164.25C1031.47 164.25 1035.62 168.938 1035.62 176.594V198H1027.84V178.156C1027.84 173.469 1025.66 170.844 1021.22 170.844C1016.75 170.844 1013.91 174.062 1013.91 178.812V198H1006.12ZM1042.53 157.125H1050.31V164.875H1056.56V170.875H1050.31V188.094C1050.31 190.812 1051.56 192.062 1054.31 192.062C1055.03 192.062 1056.03 192 1056.53 191.906V197.844C1055.69 198.031 1054.16 198.156 1052.5 198.156C1045.34 198.156 1042.53 195.625 1042.53 189.188V170.875H1037.78V164.875H1042.53V157.125ZM1072.03 192.656C1076.44 192.656 1079.97 189.719 1079.97 185.719V183.188L1072.31 183.656C1068.56 183.906 1066.41 185.594 1066.41 188.219C1066.41 190.938 1068.66 192.656 1072.03 192.656ZM1069.69 198.531C1063.28 198.531 1058.62 194.5 1058.62 188.531C1058.62 182.656 1063.16 179.125 1071.22 178.625L1079.97 178.125V175.75C1079.97 172.281 1077.62 170.281 1073.78 170.281C1070.09 170.281 1067.75 172.062 1067.25 174.812H1060.03C1060.38 168.625 1065.66 164.188 1074.09 164.188C1082.31 164.188 1087.66 168.531 1087.66 175.188V198H1080.16V192.719H1080C1078.09 196.312 1073.94 198.531 1069.69 198.531ZM1121.62 176.688H1114.28C1113.66 173.156 1111.19 170.5 1107.03 170.5C1102.12 170.5 1098.97 174.625 1098.97 181.438C1098.97 188.375 1102.16 192.375 1107.09 192.375C1111.03 192.375 1113.59 190.125 1114.31 186.375H1121.66C1121.03 193.781 1115.31 198.656 1107 198.656C1097.31 198.656 1091.06 192.188 1091.06 181.438C1091.06 170.844 1097.31 164.188 1106.94 164.188C1115.69 164.188 1121.09 169.719 1121.62 176.688ZM1126.97 157.125H1134.75V164.875H1141V170.875H1134.75V188.094C1134.75 190.812 1136 192.062 1138.75 192.062C1139.47 192.062 1140.47 192 1140.97 191.906V197.844C1140.12 198.031 1138.59 198.156 1136.94 198.156C1129.78 198.156 1126.97 195.625 1126.97 189.188V170.875H1122.22V164.875H1126.97V157.125ZM1143.31 165.25C1143.56 157.906 1148.66 152.531 1157.94 152.531C1166.5 152.531 1172.22 157.469 1172.22 164.344C1172.22 169.125 1169.84 172.469 1165.59 175C1161.5 177.375 1160.34 179 1160.34 182.125V183.938H1153.09L1153.06 181.719C1152.78 177.094 1154.59 174.281 1158.91 171.75C1162.78 169.406 1164.09 167.719 1164.09 164.625C1164.09 161.312 1161.47 158.906 1157.53 158.906C1153.5 158.906 1150.91 161.375 1150.66 165.25H1143.31ZM1156.81 198.625C1154.28 198.625 1152.25 196.656 1152.25 194.188C1152.25 191.719 1154.28 189.781 1156.81 189.781C1159.34 189.781 1161.34 191.719 1161.34 194.188C1161.34 196.656 1159.34 198.625 1156.81 198.625Z" fill="url(#paint5_linear_148_8446)"/>
<path d="M726.094 248.281C721.348 248.281 718.348 244.93 718.348 239.539C718.348 234.184 721.371 230.809 726.094 230.809C729.926 230.809 732.82 233.164 733.266 236.691H730.664C730.195 234.523 728.391 233.105 726.094 233.105C723.023 233.105 721.031 235.625 721.031 239.539C721.031 243.488 723 245.984 726.105 245.984C728.461 245.984 730.137 244.777 730.664 242.738H733.277C732.633 246.23 729.984 248.281 726.094 248.281ZM735.434 248V231.09H737.941V237.734H738C738.68 236.293 740.027 235.461 741.902 235.461C744.609 235.461 746.227 237.266 746.227 240.055V248H743.684V240.547C743.684 238.73 742.77 237.641 740.988 237.641C739.113 237.641 737.965 238.93 737.965 240.875V248H735.434ZM753.832 237.488C752.062 237.488 750.82 238.836 750.691 240.699H756.855C756.797 238.812 755.602 237.488 753.832 237.488ZM756.844 244.379H759.246C758.895 246.629 756.762 248.234 753.938 248.234C750.316 248.234 748.125 245.785 748.125 241.895C748.125 238.027 750.352 235.449 753.832 235.449C757.254 235.449 759.387 237.863 759.387 241.602V242.469H750.68V242.621C750.68 244.766 751.969 246.184 753.996 246.184C755.438 246.184 756.504 245.457 756.844 244.379ZM771.938 239.914H769.523C769.266 238.602 768.281 237.559 766.629 237.559C764.672 237.559 763.383 239.188 763.383 241.836C763.383 244.543 764.684 246.113 766.652 246.113C768.211 246.113 769.23 245.258 769.523 243.828H771.961C771.691 246.453 769.594 248.234 766.629 248.234C763.102 248.234 760.805 245.82 760.805 241.836C760.805 237.922 763.102 235.449 766.605 235.449C769.781 235.449 771.715 237.488 771.938 239.914ZM776.402 240.957L781.383 235.672H784.359L779.25 240.98L784.559 248H781.617L777.434 242.527L776.379 243.57V248H773.848V231.09H776.379V240.957H776.402ZM796.043 248.234C792.516 248.234 790.195 245.809 790.195 241.836C790.195 237.875 792.527 235.449 796.043 235.449C799.559 235.449 801.891 237.875 801.891 241.836C801.891 245.809 799.57 248.234 796.043 248.234ZM796.043 246.148C798.035 246.148 799.312 244.578 799.312 241.836C799.312 239.105 798.023 237.535 796.043 237.535C794.062 237.535 792.773 239.105 792.773 241.836C792.773 244.578 794.062 246.148 796.043 246.148ZM814.418 235.672V248H811.992V245.914H811.934C811.254 247.391 810 248.223 808.113 248.223C805.43 248.223 803.789 246.477 803.789 243.652V235.672H806.32V243.16C806.32 245.035 807.211 246.043 808.957 246.043C810.785 246.043 811.887 244.777 811.887 242.855V235.672H814.418ZM817.664 232.754H820.207V235.672H822.551V237.676H820.207V244.473C820.207 245.539 820.676 246.02 821.707 246.02C821.965 246.02 822.375 245.996 822.539 245.961V247.965C822.258 248.035 821.695 248.082 821.133 248.082C818.637 248.082 817.664 247.133 817.664 244.754V237.676H815.871V235.672H817.664V232.754ZM829.289 239.164C829.289 236.961 831.234 235.449 834.117 235.449C836.859 235.449 838.781 236.984 838.863 239.176H836.484C836.367 238.062 835.465 237.371 834.047 237.371C832.676 237.371 831.762 238.039 831.762 239.012C831.762 239.773 832.371 240.289 833.648 240.605L835.723 241.086C838.207 241.684 839.145 242.621 839.145 244.438C839.145 246.688 837.047 248.234 834.023 248.234C831.105 248.234 829.172 246.723 828.973 244.461H831.48C831.68 245.645 832.594 246.301 834.141 246.301C835.664 246.301 836.602 245.668 836.602 244.672C836.602 243.887 836.133 243.453 834.844 243.125L832.641 242.586C830.414 242.047 829.289 240.887 829.289 239.164ZM846.41 248.234C842.883 248.234 840.562 245.809 840.562 241.836C840.562 237.875 842.895 235.449 846.41 235.449C849.926 235.449 852.258 237.875 852.258 241.836C852.258 245.809 849.938 248.234 846.41 248.234ZM846.41 246.148C848.402 246.148 849.68 244.578 849.68 241.836C849.68 239.105 848.391 237.535 846.41 237.535C844.43 237.535 843.141 239.105 843.141 241.836C843.141 244.578 844.43 246.148 846.41 246.148ZM854.215 248V235.672H856.629V237.746H856.688C857.238 236.375 858.527 235.461 860.191 235.461C861.902 235.461 863.145 236.34 863.637 237.875H863.695C864.328 236.375 865.781 235.461 867.539 235.461C869.977 235.461 871.57 237.078 871.57 239.527V248H869.027V240.137C869.027 238.543 868.172 237.629 866.672 237.629C865.172 237.629 864.129 238.742 864.129 240.301V248H861.645V239.949C861.645 238.531 860.742 237.629 859.312 237.629C857.812 237.629 856.746 238.801 856.746 240.383V248H854.215ZM879.176 237.488C877.406 237.488 876.164 238.836 876.035 240.699H882.199C882.141 238.812 880.945 237.488 879.176 237.488ZM882.188 244.379H884.59C884.238 246.629 882.105 248.234 879.281 248.234C875.66 248.234 873.469 245.785 873.469 241.895C873.469 238.027 875.695 235.449 879.176 235.449C882.598 235.449 884.73 237.863 884.73 241.602V242.469H876.023V242.621C876.023 244.766 877.312 246.184 879.34 246.184C880.781 246.184 881.848 245.457 882.188 244.379ZM907.84 235.672L904.465 248H901.828L899.238 238.766H899.18L896.613 248H894L890.613 235.672H893.145L895.395 245.375H895.441L898.008 235.672H900.445L903.023 245.375H903.082L905.332 235.672H907.84ZM913.488 246.207C915.258 246.207 916.641 244.988 916.641 243.383V242.41L913.605 242.598C912.094 242.703 911.238 243.371 911.238 244.426C911.238 245.504 912.129 246.207 913.488 246.207ZM912.785 248.211C910.371 248.211 908.684 246.711 908.684 244.496C908.684 242.34 910.336 241.016 913.266 240.852L916.641 240.652V239.703C916.641 238.332 915.715 237.512 914.168 237.512C912.703 237.512 911.789 238.215 911.566 239.316H909.176C909.316 237.09 911.215 235.449 914.262 235.449C917.25 235.449 919.16 237.031 919.16 239.504V248H916.734V245.973H916.676C915.961 247.344 914.402 248.211 912.785 248.211ZM922.84 252.594C922.641 252.594 921.996 252.57 921.809 252.535V250.484C921.996 250.531 922.418 250.531 922.629 250.531C923.812 250.531 924.434 250.039 924.82 248.773C924.82 248.75 925.043 248.023 925.043 248.012L920.59 235.672H923.332L926.461 245.703H926.496L929.625 235.672H932.297L927.668 248.645C926.613 251.633 925.406 252.594 922.84 252.594ZM933.562 239.164C933.562 236.961 935.508 235.449 938.391 235.449C941.133 235.449 943.055 236.984 943.137 239.176H940.758C940.641 238.062 939.738 237.371 938.32 237.371C936.949 237.371 936.035 238.039 936.035 239.012C936.035 239.773 936.645 240.289 937.922 240.605L939.996 241.086C942.48 241.684 943.418 242.621 943.418 244.438C943.418 246.688 941.32 248.234 938.297 248.234C935.379 248.234 933.445 246.723 933.246 244.461H935.754C935.953 245.645 936.867 246.301 938.414 246.301C939.938 246.301 940.875 245.668 940.875 244.672C940.875 243.887 940.406 243.453 939.117 243.125L936.914 242.586C934.688 242.047 933.562 240.887 933.562 239.164ZM951 232.754H953.543V235.672H955.887V237.676H953.543V244.473C953.543 245.539 954.012 246.02 955.043 246.02C955.301 246.02 955.711 245.996 955.875 245.961V247.965C955.594 248.035 955.031 248.082 954.469 248.082C951.973 248.082 951 247.133 951 244.754V237.676H949.207V235.672H951V232.754ZM962.965 248.234C959.438 248.234 957.117 245.809 957.117 241.836C957.117 237.875 959.449 235.449 962.965 235.449C966.48 235.449 968.812 237.875 968.812 241.836C968.812 245.809 966.492 248.234 962.965 248.234ZM962.965 246.148C964.957 246.148 966.234 244.578 966.234 241.836C966.234 239.105 964.945 237.535 962.965 237.535C960.984 237.535 959.695 239.105 959.695 241.836C959.695 244.578 960.984 246.148 962.965 246.148ZM986.227 239.914H983.812C983.555 238.602 982.57 237.559 980.918 237.559C978.961 237.559 977.672 239.188 977.672 241.836C977.672 244.543 978.973 246.113 980.941 246.113C982.5 246.113 983.52 245.258 983.812 243.828H986.25C985.98 246.453 983.883 248.234 980.918 248.234C977.391 248.234 975.094 245.82 975.094 241.836C975.094 237.922 977.391 235.449 980.895 235.449C984.07 235.449 986.004 237.488 986.227 239.914ZM993.34 248.234C989.812 248.234 987.492 245.809 987.492 241.836C987.492 237.875 989.824 235.449 993.34 235.449C996.855 235.449 999.188 237.875 999.188 241.836C999.188 245.809 996.867 248.234 993.34 248.234ZM993.34 246.148C995.332 246.148 996.609 244.578 996.609 241.836C996.609 239.105 995.32 237.535 993.34 237.535C991.359 237.535 990.07 239.105 990.07 241.836C990.07 244.578 991.359 246.148 993.34 246.148ZM1001.14 248V235.672H1003.56V237.734H1003.62C1004.29 236.328 1005.6 235.461 1007.5 235.461C1010.21 235.461 1011.77 237.195 1011.77 240.02V248H1009.23V240.512C1009.23 238.66 1008.36 237.641 1006.61 237.641C1004.82 237.641 1003.68 238.906 1003.68 240.816V248H1001.14ZM1014.96 232.754H1017.5V235.672H1019.85V237.676H1017.5V244.473C1017.5 245.539 1017.97 246.02 1019 246.02C1019.26 246.02 1019.67 245.996 1019.84 245.961V247.965C1019.55 248.035 1018.99 248.082 1018.43 248.082C1015.93 248.082 1014.96 247.133 1014.96 244.754V237.676H1013.17V235.672H1014.96V232.754ZM1026.06 246.207C1027.83 246.207 1029.21 244.988 1029.21 243.383V242.41L1026.18 242.598C1024.66 242.703 1023.81 243.371 1023.81 244.426C1023.81 245.504 1024.7 246.207 1026.06 246.207ZM1025.36 248.211C1022.94 248.211 1021.25 246.711 1021.25 244.496C1021.25 242.34 1022.91 241.016 1025.84 240.852L1029.21 240.652V239.703C1029.21 238.332 1028.29 237.512 1026.74 237.512C1025.27 237.512 1024.36 238.215 1024.14 239.316H1021.75C1021.89 237.09 1023.79 235.449 1026.83 235.449C1029.82 235.449 1031.73 237.031 1031.73 239.504V248H1029.3V245.973H1029.25C1028.53 247.344 1026.97 248.211 1025.36 248.211ZM1044.77 239.914H1042.36C1042.1 238.602 1041.12 237.559 1039.46 237.559C1037.51 237.559 1036.22 239.188 1036.22 241.836C1036.22 244.543 1037.52 246.113 1039.49 246.113C1041.05 246.113 1042.07 245.258 1042.36 243.828H1044.8C1044.53 246.453 1042.43 248.234 1039.46 248.234C1035.94 248.234 1033.64 245.82 1033.64 241.836C1033.64 237.922 1035.94 235.449 1039.44 235.449C1042.62 235.449 1044.55 237.488 1044.77 239.914ZM1047.33 232.754H1049.87V235.672H1052.21V237.676H1049.87V244.473C1049.87 245.539 1050.34 246.02 1051.37 246.02C1051.63 246.02 1052.04 245.996 1052.2 245.961V247.965C1051.92 248.035 1051.36 248.082 1050.8 248.082C1048.3 248.082 1047.33 247.133 1047.33 244.754V237.676H1045.54V235.672H1047.33V232.754ZM1069.75 235.672V248H1067.32V245.914H1067.26C1066.58 247.391 1065.33 248.223 1063.44 248.223C1060.76 248.223 1059.12 246.477 1059.12 243.652V235.672H1061.65V243.16C1061.65 245.035 1062.54 246.043 1064.29 246.043C1066.11 246.043 1067.21 244.777 1067.21 242.855V235.672H1069.75ZM1072.03 239.164C1072.03 236.961 1073.98 235.449 1076.86 235.449C1079.6 235.449 1081.52 236.984 1081.61 239.176H1079.23C1079.11 238.062 1078.21 237.371 1076.79 237.371C1075.42 237.371 1074.5 238.039 1074.5 239.012C1074.5 239.773 1075.11 240.289 1076.39 240.605L1078.46 241.086C1080.95 241.684 1081.89 242.621 1081.89 244.438C1081.89 246.688 1079.79 248.234 1076.77 248.234C1073.85 248.234 1071.91 246.723 1071.71 244.461H1074.22C1074.42 245.645 1075.34 246.301 1076.88 246.301C1078.41 246.301 1079.34 245.668 1079.34 244.672C1079.34 243.887 1078.88 243.453 1077.59 243.125L1075.38 242.586C1073.16 242.047 1072.03 240.887 1072.03 239.164Z" fill="url(#paint6_linear_148_8446)" fill-opacity="0.75"/>
<rect x="713" y="287" width="180" height="48" rx="14" fill="url(#paint7_linear_148_8446)"/>
<rect x="714" y="288" width="178" height="46" rx="13" stroke="black" stroke-opacity="0.1" stroke-width="2"/>
<path d="M760.169 304.317H764.643C768.413 304.317 770.646 306.638 770.646 310.637C770.646 314.645 768.422 317 764.643 317H760.169V304.317ZM762.138 306.014V315.295H764.458C767.147 315.295 768.633 313.651 768.633 310.654C768.633 307.666 767.139 306.014 764.458 306.014H762.138ZM772.359 317V307.754H774.258V317H772.359ZM773.309 306.4C772.702 306.4 772.21 305.917 772.21 305.319C772.21 304.713 772.702 304.229 773.309 304.229C773.924 304.229 774.416 304.713 774.416 305.319C774.416 305.917 773.924 306.4 773.309 306.4ZM776.033 310.373C776.033 308.721 777.492 307.587 779.654 307.587C781.711 307.587 783.152 308.738 783.214 310.382H781.43C781.342 309.547 780.665 309.028 779.602 309.028C778.573 309.028 777.888 309.529 777.888 310.259C777.888 310.83 778.345 311.217 779.303 311.454L780.858 311.814C782.722 312.263 783.425 312.966 783.425 314.328C783.425 316.016 781.852 317.176 779.584 317.176C777.396 317.176 775.945 316.042 775.796 314.346H777.677C777.826 315.233 778.512 315.726 779.672 315.726C780.814 315.726 781.518 315.251 781.518 314.504C781.518 313.915 781.166 313.59 780.199 313.344L778.547 312.939C776.877 312.535 776.033 311.665 776.033 310.373ZM792.838 310.936H791.027C790.834 309.951 790.096 309.169 788.856 309.169C787.389 309.169 786.422 310.391 786.422 312.377C786.422 314.407 787.397 315.585 788.874 315.585C790.043 315.585 790.808 314.943 791.027 313.871H792.855C792.653 315.84 791.08 317.176 788.856 317.176C786.211 317.176 784.488 315.365 784.488 312.377C784.488 309.441 786.211 307.587 788.839 307.587C791.221 307.587 792.671 309.116 792.838 310.936ZM798.173 317.176C795.527 317.176 793.787 315.356 793.787 312.377C793.787 309.406 795.536 307.587 798.173 307.587C800.81 307.587 802.559 309.406 802.559 312.377C802.559 315.356 800.818 317.176 798.173 317.176ZM798.173 315.611C799.667 315.611 800.625 314.434 800.625 312.377C800.625 310.329 799.658 309.151 798.173 309.151C796.688 309.151 795.721 310.329 795.721 312.377C795.721 314.434 796.688 315.611 798.173 315.611ZM804.026 317V307.754H805.837V309.327H805.881C806.188 308.246 807.015 307.604 808.104 307.604C808.377 307.604 808.614 307.648 808.755 307.675V309.441C808.605 309.38 808.271 309.336 807.902 309.336C806.681 309.336 805.925 310.153 805.925 311.463V317H804.026ZM813 317.158C810.662 317.158 809.115 315.295 809.115 312.377C809.115 309.459 810.662 307.604 812.982 307.604C814.31 307.604 815.364 308.272 815.883 309.292H815.918V304.317H817.825V317H815.979V315.427H815.944C815.399 316.481 814.345 317.158 813 317.158ZM813.501 309.204C811.998 309.204 811.058 310.435 811.058 312.377C811.058 314.328 811.998 315.55 813.501 315.55C814.96 315.55 815.936 314.311 815.936 312.377C815.936 310.461 814.96 309.204 813.501 309.204Z" fill="url(#paint8_linear_148_8446)"/>
<path fill-rule="evenodd" clip-rule="evenodd" d="M835 302.25C830.444 302.25 826.75 305.944 826.75 310.5C826.75 315.056 830.444 318.75 835 318.75C839.556 318.75 843.25 315.056 843.25 310.5C843.25 305.944 839.556 302.25 835 302.25ZM825.25 310.5C825.25 305.115 829.615 300.75 835 300.75C840.385 300.75 844.75 305.115 844.75 310.5C844.75 315.885 840.385 320.25 835 320.25C829.615 320.25 825.25 315.885 825.25 310.5ZM835.47 306.47C835.763 306.177 836.237 306.177 836.53 306.47L840.03 309.97C840.171 310.11 840.25 310.301 840.25 310.5C840.25 310.699 840.171 310.89 840.03 311.03L836.53 314.53C836.237 314.823 835.763 314.823 835.47 314.53C835.177 314.237 835.177 313.763 835.47 313.47L837.689 311.25L830.5 311.25C830.086 311.25 829.75 310.914 829.75 310.5C829.75 310.086 830.086 309.75 830.5 309.75L837.689 309.75L835.47 307.53C835.177 307.237 835.177 306.763 835.47 306.47Z" fill="url(#paint9_linear_148_8446)"/>
<rect x="907" y="287" width="180" height="48" rx="14" fill="url(#paint10_linear_148_8446)"/>
<rect x="908" y="288" width="178" height="46" rx="13" stroke="black" stroke-opacity="0.1" stroke-width="2"/>
<path d="M964.153 304.106C967.801 304.106 970.095 306.629 970.095 310.663C970.095 314.697 967.801 317.211 964.153 317.211C960.497 317.211 958.212 314.697 958.212 310.663C958.212 306.629 960.497 304.106 964.153 304.106ZM964.153 305.838C961.745 305.838 960.225 307.701 960.225 310.663C960.225 313.616 961.745 315.479 964.153 315.479C966.562 315.479 968.073 313.616 968.073 310.663C968.073 307.701 966.562 305.838 964.153 305.838ZM971.747 317V307.754H973.558V309.301H973.602C974.103 308.246 975.087 307.596 976.511 307.596C978.55 307.596 979.719 308.896 979.719 311.015V317H977.812V311.384C977.812 309.995 977.161 309.23 975.843 309.23C974.507 309.23 973.646 310.18 973.646 311.612V317H971.747ZM981.626 317V304.317H983.524V317H981.626ZM985.537 317V307.754H987.436V317H985.537ZM986.486 306.4C985.88 306.4 985.388 305.917 985.388 305.319C985.388 304.713 985.88 304.229 986.486 304.229C987.102 304.229 987.594 304.713 987.594 305.319C987.594 305.917 987.102 306.4 986.486 306.4ZM989.378 317V307.754H991.188V309.301H991.232C991.733 308.246 992.718 307.596 994.142 307.596C996.181 307.596 997.35 308.896 997.35 311.015V317H995.442V311.384C995.442 309.995 994.792 309.23 993.474 309.23C992.138 309.23 991.276 310.18 991.276 311.612V317H989.378ZM1003.05 309.116C1001.73 309.116 1000.79 310.127 1000.7 311.524H1005.32C1005.28 310.109 1004.38 309.116 1003.05 309.116ZM1005.31 314.284H1007.11C1006.85 315.972 1005.25 317.176 1003.13 317.176C1000.42 317.176 998.773 315.339 998.773 312.421C998.773 309.521 1000.44 307.587 1003.05 307.587C1005.62 307.587 1007.22 309.397 1007.22 312.201V312.852H1000.69V312.966C1000.69 314.574 1001.66 315.638 1003.18 315.638C1004.26 315.638 1005.06 315.093 1005.31 314.284Z" fill="url(#paint11_linear_148_8446)"/>
<path fill-rule="evenodd" clip-rule="evenodd" d="M1024.5 302.25C1019.94 302.25 1016.25 305.944 1016.25 310.5C1016.25 315.056 1019.94 318.75 1024.5 318.75C1029.06 318.75 1032.75 315.056 1032.75 310.5C1032.75 305.944 1029.06 302.25 1024.5 302.25ZM1014.75 310.5C1014.75 305.115 1019.12 300.75 1024.5 300.75C1029.88 300.75 1034.25 305.115 1034.25 310.5C1034.25 315.885 1029.88 320.25 1024.5 320.25C1019.12 320.25 1014.75 315.885 1014.75 310.5ZM1024.97 306.47C1025.26 306.177 1025.74 306.177 1026.03 306.47L1029.53 309.97C1029.67 310.11 1029.75 310.301 1029.75 310.5C1029.75 310.699 1029.67 310.89 1029.53 311.03L1026.03 314.53C1025.74 314.823 1025.26 314.823 1024.97 314.53C1024.68 314.237 1024.68 313.763 1024.97 313.47L1027.19 311.25L1020 311.25C1019.59 311.25 1019.25 310.914 1019.25 310.5C1019.25 310.086 1019.59 309.75 1020 309.75L1027.19 309.75L1024.97 307.53C1024.68 307.237 1024.68 306.763 1024.97 306.47Z" fill="url(#paint12_linear_148_8446)"/>
</g>
<rect x="1" y="1" width="1798" height="397" rx="21" stroke="white" stroke-opacity="0.1" stroke-width="2"/>
<defs>
<linearGradient id="paint0_linear_148_8446" x1="900" y1="0" x2="900" y2="399" gradientUnits="userSpaceOnUse">
<stop stop-color="#6999FC"/>
<stop offset="1" stop-color="#4983FB"/>
</linearGradient>
<linearGradient id="paint1_linear_148_8446" x1="900" y1="-246" x2="900" y2="744" gradientUnits="userSpaceOnUse">
<stop stop-color="white" stop-opacity="0.3"/>
<stop offset="1" stop-color="#C3D7FF" stop-opacity="0.05"/>
</linearGradient>
<linearGradient id="paint2_linear_148_8446" x1="900" y1="64" x2="900" y2="108" gradientUnits="userSpaceOnUse">
<stop stop-color="white"/>
<stop offset="1" stop-color="#C3D7FF"/>
</linearGradient>
<linearGradient id="paint3_linear_148_8446" x1="863.5" y1="77" x2="863.5" y2="95" gradientUnits="userSpaceOnUse">
<stop stop-color="#6999FC"/>
<stop offset="1" stop-color="#4983FB"/>
</linearGradient>
<linearGradient id="paint4_linear_148_8446" x1="911" y1="74.5" x2="911" y2="97.5" gradientUnits="userSpaceOnUse">
<stop stop-color="#6999FC"/>
<stop offset="1" stop-color="#4983FB"/>
</linearGradient>
<linearGradient id="paint5_linear_148_8446" x1="900" y1="140" x2="900" y2="210" gradientUnits="userSpaceOnUse">
<stop stop-color="white"/>
<stop offset="1" stop-color="#C3D7FF"/>
</linearGradient>
<linearGradient id="paint6_linear_148_8446" x1="900" y1="224" x2="900" y2="255" gradientUnits="userSpaceOnUse">
<stop stop-color="white"/>
<stop offset="1" stop-color="#C3D7FF"/>
</linearGradient>
<linearGradient id="paint7_linear_148_8446" x1="803" y1="287" x2="803" y2="335" gradientUnits="userSpaceOnUse">
<stop stop-color="white"/>
<stop offset="1" stop-color="#E1E1E1"/>
</linearGradient>
<linearGradient id="paint8_linear_148_8446" x1="789" y1="299" x2="789" y2="322" gradientUnits="userSpaceOnUse">
<stop stop-color="#6999FC"/>
<stop offset="1" stop-color="#4983FB"/>
</linearGradient>
<linearGradient id="paint9_linear_148_8446" x1="835" y1="300.75" x2="835" y2="320.25" gradientUnits="userSpaceOnUse">
<stop stop-color="#6999FC"/>
<stop offset="1" stop-color="#4983FB"/>
</linearGradient>
<linearGradient id="paint10_linear_148_8446" x1="997" y1="287" x2="997" y2="335" gradientUnits="userSpaceOnUse">
<stop stop-color="white"/>
<stop offset="1" stop-color="#E1E1E1"/>
</linearGradient>
<linearGradient id="paint11_linear_148_8446" x1="983" y1="299" x2="983" y2="322" gradientUnits="userSpaceOnUse">
<stop stop-color="#6999FC"/>
<stop offset="1" stop-color="#4983FB"/>
</linearGradient>
<linearGradient id="paint12_linear_148_8446" x1="1024.5" y1="300.75" x2="1024.5" y2="320.25" gradientUnits="userSpaceOnUse">
<stop stop-color="#6999FC"/>
<stop offset="1" stop-color="#4983FB"/>
</linearGradient>
<clipPath id="clip0_148_8446">
<rect width="1800" height="399" rx="22" fill="white"/>
</clipPath>
</defs>
</svg>
