<svg width="24" height="25" viewBox="0 0 24 25" fill="none" xmlns="http://www.w3.org/2000/svg">
<path fill-rule="evenodd" clip-rule="evenodd" d="M12 4.25C7.44365 4.25 3.75 7.94365 3.75 12.5C3.75 17.0563 7.44365 20.75 12 20.75C16.5563 20.75 20.25 17.0563 20.25 12.5C20.25 7.94365 16.5563 4.25 12 4.25ZM2.25 12.5C2.25 7.11522 6.61522 2.75 12 2.75C17.3848 2.75 21.75 7.11522 21.75 12.5C21.75 17.8848 17.3848 22.25 12 22.25C6.61522 22.25 2.25 17.8848 2.25 12.5ZM12.4697 8.46967C12.7626 8.17678 13.2374 8.17678 13.5303 8.46967L17.0303 11.9697C17.171 12.1103 17.25 12.3011 17.25 12.5C17.25 12.6989 17.171 12.8897 17.0303 13.0303L13.5303 16.5303C13.2374 16.8232 12.7626 16.8232 12.4697 16.5303C12.1768 16.2374 12.1768 15.7626 12.4697 15.4697L14.6893 13.25L7.5 13.25C7.08579 13.25 6.75 12.9142 6.75 12.5C6.75 12.0858 7.08579 11.75 7.5 11.75L14.6893 11.75L12.4697 9.53033C12.1768 9.23744 12.1768 8.76256 12.4697 8.46967Z" fill="url(#paint0_linear_726_4961)"/>
<defs>
<linearGradient id="paint0_linear_726_4961" x1="12" y1="2.75" x2="12" y2="22.25" gradientUnits="userSpaceOnUse">
<stop stop-color="white"/>
<stop offset="1" stop-color="#C3D7FF"/>
</linearGradient>
</defs>
</svg>
