<svg width="990" height="399" viewBox="0 0 990 399" fill="none" xmlns="http://www.w3.org/2000/svg">
<path fill-rule="evenodd" clip-rule="evenodd" d="M987.466 24.9569C998.019 -14.4291 974.646 -54.913 935.26 -65.4665L270.957 -243.466C231.571 -254.019 191.087 -230.646 180.534 -191.26L2.53404 473.043C-8.01941 512.429 15.3539 552.913 54.7399 563.466L719.043 741.466C758.429 752.019 798.913 728.646 809.466 689.26L987.466 24.9569ZM603.785 246.483C614.338 207.097 590.965 166.613 551.579 156.059L492.475 140.222C453.089 129.669 412.605 153.042 402.052 192.428L386.215 251.532C375.662 290.918 399.035 331.402 438.421 341.956L497.525 357.792C536.911 368.346 577.395 344.972 587.948 305.586L603.785 246.483Z" fill="url(#paint0_linear_148_8447)"/>
<defs>
<linearGradient id="paint0_linear_148_8447" x1="495" y1="-246" x2="495" y2="744" gradientUnits="userSpaceOnUse">
<stop stop-color="white" stop-opacity="0.3"/>
<stop offset="1" stop-color="#C3D7FF" stop-opacity="0.05"/>
</linearGradient>
</defs>
</svg>
