<svg width="25" height="24" viewBox="0 0 25 24" fill="none" xmlns="http://www.w3.org/2000/svg">
<path d="M10.4174 7.07607C10.591 7.25312 10.6882 7.49114 10.6882 7.73906C10.6882 7.98697 10.591 8.225 10.4174 8.40204L8.90204 9.91743C8.725 10.091 8.48697 10.1882 8.23906 10.1882C7.99114 10.1882 7.75311 10.091 7.57607 9.91743L5.02761 7.36898C4.5334 6.87477 3.70109 7.03629 3.58246 7.72507C3.47001 8.37796 3.47196 9.04918 3.59205 9.70826C3.79911 10.8447 4.34761 11.8911 5.16444 12.7079C5.98127 13.5247 7.02763 14.0732 8.16409 14.2803C8.84375 14.4041 9.53633 14.4023 10.2084 14.279C11.0272 14.1288 11.9152 14.2566 12.5039 14.8452L18.0702 20.4115C18.447 20.7883 18.958 21 19.4909 21C20.0237 21 20.5347 20.7883 20.9115 20.4115C21.2883 20.0347 21.5 19.5237 21.5 18.9909C21.5 18.458 21.2883 17.947 20.9115 17.5702L15.3452 12.0039C14.7566 11.4152 14.6288 10.5272 14.779 9.7084C14.9023 9.03633 14.9041 8.34375 14.7803 7.66409C14.5732 6.52763 14.0247 5.48127 13.2079 4.66444C12.3911 3.84761 11.3447 3.29911 10.2083 3.09205C9.54918 2.97196 8.87796 2.97001 8.22507 3.08246C7.53629 3.20109 7.37476 4.0334 7.86898 4.52761L10.4174 7.07607Z" fill="url(#paint0_linear_737_6738)"/>
<defs>
<linearGradient id="paint0_linear_737_6738" x1="12.5" y1="3" x2="12.5" y2="21" gradientUnits="userSpaceOnUse">
<stop stop-color="#6999FC"/>
<stop offset="1" stop-color="#4983FB"/>
</linearGradient>
</defs>
</svg>
