<svg width="24" height="24" viewBox="0 0 24 24" fill="none" xmlns="http://www.w3.org/2000/svg">
<path fill-rule="evenodd" clip-rule="evenodd" d="M8.49 20.2908C9.585 20.7636 10.755 21 12 21C13.2462 21.0012 14.4162 20.7651 15.51 20.2917C16.6038 19.8183 17.5563 19.1769 18.3675 18.3675C19.1787 17.5581 19.8198 16.6056 20.2908 15.51C20.7618 14.4144 20.9982 13.2444 21 12C21.0018 10.7556 20.7657 9.5856 20.2917 8.49C19.8177 7.3944 19.1763 6.4419 18.3675 5.6325C17.5587 4.8231 16.6062 4.182 15.51 3.7092C14.4138 3.2364 13.2438 3 12 3C10.7562 3 9.5862 3.2364 8.49 3.7092C7.3938 4.182 6.4413 4.8231 5.6325 5.6325C4.8237 6.4419 4.1826 7.3944 3.7092 8.49C3.2358 9.5856 2.9994 10.7556 3 12C3.0006 13.2444 3.237 14.4144 3.7092 15.51C4.1814 16.6056 4.8225 17.5581 5.6325 18.3675C6.4425 19.1769 7.395 19.818 8.49 20.2908ZM16.6839 10.7295C17.0869 10.3518 17.1073 9.71897 16.7295 9.31606C16.3518 8.91315 15.719 8.89273 15.3161 9.27046L10.6667 13.6293L8.68394 11.7705C8.28103 11.3927 7.64819 11.4131 7.27046 11.8161C6.89273 12.219 6.91315 12.8518 7.31606 13.2295L9.98273 15.7295C10.3674 16.0902 10.966 16.0902 11.3506 15.7295L16.6839 10.7295Z" fill="url(#paint0_linear_733_6750)"/>
<defs>
<linearGradient id="paint0_linear_733_6750" x1="4.01484" y1="6.52174" x2="4.01484" y2="20.6087" gradientUnits="userSpaceOnUse">
<stop stop-color="#5C5C5D"/>
<stop offset="1" stop-color="#333334"/>
</linearGradient>
</defs>
</svg>
