<svg width="25" height="24" viewBox="0 0 25 24" fill="none" xmlns="http://www.w3.org/2000/svg">
<path fill-rule="evenodd" clip-rule="evenodd" d="M11.339 2.25C11.7532 2.25 12.089 2.58579 12.089 3V4.97822C12.089 5.39244 11.7532 5.72822 11.339 5.72822C10.9248 5.72822 10.589 5.39244 10.589 4.97822V3C10.589 2.58579 10.9248 2.25 11.339 2.25ZM5.42185 4.93997C5.71611 4.64845 6.19098 4.65068 6.4825 4.94494L7.9523 6.42861C8.24382 6.72288 8.24159 7.19775 7.94733 7.48926C7.65306 7.78078 7.17819 7.77855 6.88668 7.48428L5.41687 6.00062C5.12535 5.70635 5.12758 5.23148 5.42185 4.93997ZM17.2561 4.93997C17.5504 5.23148 17.5526 5.70635 17.2611 6.00062L15.7913 7.48428C15.4998 7.77855 15.0249 7.78078 14.7306 7.48926C14.4364 7.19775 14.4341 6.72288 14.7257 6.42861L16.1955 4.94494C16.487 4.65068 16.9619 4.64845 17.2561 4.93997ZM10.69 11.7055C10.3057 10.7128 11.2753 9.69249 12.2993 10.0964L21.4636 13.7113C22.5119 14.1248 22.5122 15.6138 21.4641 16.0278L17.956 17.4134L16.5825 20.9567C16.1724 22.0147 14.6808 22.0143 14.2712 20.9562L10.69 11.7055ZM12.2999 11.7091L15.4271 19.7872L16.676 16.5653C16.7516 16.3703 16.9052 16.2157 17.0998 16.1389L20.3126 14.8698L12.2999 11.7091ZM3.5 10.1629L5.45975 10.1629C5.87396 10.1629 6.20975 10.4987 6.20975 10.9129C6.20975 11.3271 5.87396 11.6629 5.45975 11.6629H3.5C3.08579 11.6629 2.75 11.3271 2.75 10.9129C2.75 10.4987 3.08579 10.1629 3.5 10.1629ZM7.94733 14.3365C8.24159 14.6281 8.24382 15.1029 7.9523 15.3972L6.4825 16.8809C6.19098 17.1751 5.71611 17.1773 5.42185 16.8858C5.12758 16.5943 5.12535 16.1194 5.41687 15.8252L6.88668 14.3415C7.17819 14.0472 7.65306 14.045 7.94733 14.3365Z" fill="url(#paint0_linear_737_5717)"/>
<defs>
<linearGradient id="paint0_linear_737_5717" x1="3.84941" y1="6.06522" x2="3.84941" y2="21.3261" gradientUnits="userSpaceOnUse">
<stop stop-color="#5C5C5D"/>
<stop offset="1" stop-color="#333334"/>
</linearGradient>
</defs>
</svg>
