<svg width="24" height="24" viewBox="0 0 24 24" fill="none" xmlns="http://www.w3.org/2000/svg">
<path fill-rule="evenodd" clip-rule="evenodd" d="M12.8567 4.05949C12.3542 3.64684 11.6458 3.64684 11.1433 4.05949L5.27664 8.87737C4.94723 9.14789 4.75 9.56288 4.75 10.0078L4.75 18.8101C4.75 19.624 5.38774 20.25 6.13333 20.25H8.75L8.75 15.5C8.75 13.9812 9.98122 12.75 11.5 12.75H12.5C14.0188 12.75 15.25 13.9812 15.25 15.5L15.25 20.25H17.8667C18.6123 20.25 19.25 19.624 19.25 18.8101V10.0078C19.25 9.56288 19.0528 9.14789 18.7234 8.87737L12.8567 4.05949ZM17.8667 21.75C19.4775 21.75 20.75 20.4151 20.75 18.8101L20.75 10.0078C20.75 9.12224 20.358 8.27883 19.6753 7.71817L13.8087 2.90028C12.7529 2.03324 11.2471 2.03324 10.1913 2.90029L4.32466 7.71817C3.64195 8.27883 3.25 9.12224 3.25 10.0078L3.25 18.8101C3.25 20.4151 4.52252 21.75 6.13333 21.75L17.8667 21.75ZM13.75 20.25L13.75 15.5C13.75 14.8096 13.1904 14.25 12.5 14.25H11.5C10.8096 14.25 10.25 14.8096 10.25 15.5L10.25 20.25H13.75Z" fill="url(#paint0_linear_726_6441)"/>
<defs>
<linearGradient id="paint0_linear_726_6441" x1="4.23665" y1="6.06522" x2="4.23665" y2="21.3261" gradientUnits="userSpaceOnUse">
<stop stop-color="#5C5C5D"/>
<stop offset="1" stop-color="#333334"/>
</linearGradient>
</defs>
</svg>
