<svg width="24" height="24" viewBox="0 0 24 24" fill="none" xmlns="http://www.w3.org/2000/svg">
<path fill-rule="evenodd" clip-rule="evenodd" d="M12 3.75C7.44365 3.75 3.75 7.44365 3.75 12C3.75 16.5563 7.44365 20.25 12 20.25C16.5563 20.25 20.25 16.5563 20.25 12C20.25 7.44365 16.5563 3.75 12 3.75ZM2.25 12C2.25 6.61522 6.61522 2.25 12 2.25C17.3848 2.25 21.75 6.61522 21.75 12C21.75 17.3848 17.3848 21.75 12 21.75C6.61522 21.75 2.25 17.3848 2.25 12ZM12 7.25C12.4142 7.25 12.75 7.58579 12.75 8V8.5C12.75 8.91421 12.4142 9.25 12 9.25C11.5858 9.25 11.25 8.91421 11.25 8.5V8C11.25 7.58579 11.5858 7.25 12 7.25ZM10.75 11C10.75 10.5858 11.0858 10.25 11.5 10.25H12C12.4142 10.25 12.75 10.5858 12.75 11V15.2927C13.0413 15.3956 13.25 15.6734 13.25 16C13.25 16.4142 12.9142 16.75 12.5 16.75H11.5C11.0858 16.75 10.75 16.4142 10.75 16C10.75 15.6734 10.9587 15.3956 11.25 15.2927V11.7073C10.9587 11.6044 10.75 11.3266 10.75 11Z" fill="url(#paint0_linear_726_6465)"/>
<defs>
<linearGradient id="paint0_linear_726_6465" x1="3.34941" y1="6.06522" x2="3.34941" y2="21.3261" gradientUnits="userSpaceOnUse">
<stop stop-color="#5C5C5D"/>
<stop offset="1" stop-color="#333334"/>
</linearGradient>
</defs>
</svg>
