<svg width="24" height="24" viewBox="0 0 24 24" fill="none" xmlns="http://www.w3.org/2000/svg">
<path fill-rule="evenodd" clip-rule="evenodd" d="M12 3.75C7.44365 3.75 3.75 7.44365 3.75 12C3.75 16.5563 7.44365 20.25 12 20.25C16.5563 20.25 20.25 16.5563 20.25 12C20.25 7.44365 16.5563 3.75 12 3.75ZM2.25 12C2.25 6.61522 6.61522 2.25 12 2.25C17.3848 2.25 21.75 6.61522 21.75 12C21.75 17.3848 17.3848 21.75 12 21.75C6.61522 21.75 2.25 17.3848 2.25 12ZM13.8724 7.93331C14.4156 8.4147 14.75 9.12117 14.75 9.99017C14.75 10.6296 14.586 11.1284 14.3006 11.5334C14.044 11.8975 13.7119 12.1467 13.4768 12.323C13.4679 12.3297 13.4591 12.3363 13.4505 12.3427C13.1865 12.5411 13.0343 12.6626 12.9256 12.8169C12.836 12.944 12.75 13.1339 12.75 13.4961C12.75 13.9103 12.4142 14.2461 12 14.2461C11.5858 14.2461 11.25 13.9103 11.25 13.4961C11.25 12.8566 11.414 12.3579 11.6994 11.9528C11.956 11.5888 12.2881 11.3396 12.5232 11.1633C12.5321 11.1566 12.5409 11.15 12.5495 11.1435C12.8135 10.9452 12.9657 10.8237 13.0744 10.6694C13.164 10.5423 13.25 10.3524 13.25 9.99017C13.25 9.52976 13.0844 9.23918 12.8776 9.05589C12.6568 8.86021 12.3408 8.74608 12 8.74608C11.6592 8.74608 11.3432 8.86022 11.1225 9.0559C10.9156 9.2392 10.75 9.52978 10.75 9.99019C10.75 10.4044 10.4142 10.7402 10 10.7402C9.58579 10.7402 9.25 10.4044 9.25 9.99019C9.25 9.1212 9.58437 8.41473 10.1275 7.93333C10.6568 7.46431 11.3408 7.24609 12 7.24608C12.6592 7.24608 13.3432 7.46429 13.8724 7.93331ZM12 14.7466C12.4142 14.7466 12.75 15.0824 12.75 15.4966V15.9966C12.75 16.4108 12.4142 16.7466 12 16.7466C11.5858 16.7466 11.25 16.4108 11.25 15.9966V15.4966C11.25 15.0824 11.5858 14.7466 12 14.7466Z" fill="url(#paint0_linear_726_6457)"/>
<defs>
<linearGradient id="paint0_linear_726_6457" x1="3.34941" y1="6.06522" x2="3.34941" y2="21.3261" gradientUnits="userSpaceOnUse">
<stop stop-color="#5C5C5D"/>
<stop offset="1" stop-color="#333334"/>
</linearGradient>
</defs>
</svg>
