<svg width="24" height="24" viewBox="0 0 24 24" fill="none" xmlns="http://www.w3.org/2000/svg">
<path fill-rule="evenodd" clip-rule="evenodd" d="M22.0054 7.44835C22.2198 6.64815 21.7449 5.82564 20.9447 5.61123L7.44816 1.99484C6.64796 1.78043 5.82546 2.2553 5.61105 3.0555L1.99466 16.552C1.78025 17.3522 2.25512 18.1747 3.05532 18.3892L16.5519 22.0055C17.3521 22.22 18.1746 21.7451 18.389 20.9449L22.0054 7.44835ZM14.2102 11.949C14.4246 11.1488 13.9497 10.3263 13.1495 10.1119L11.9487 9.79018C11.1485 9.57576 10.326 10.0506 10.1116 10.8508L9.78984 12.0516C9.57543 12.8518 10.0503 13.6743 10.8505 13.8888L12.0513 14.2105C12.8515 14.4249 13.674 13.95 13.8884 13.1498L14.2102 11.949Z" fill="url(#paint0_linear_148_8415)"/>
<defs>
<linearGradient id="paint0_linear_148_8415" x1="3.07718" y1="5.87864" x2="3.07718" y2="21.6198" gradientUnits="userSpaceOnUse">
<stop stop-color="#5C5C5D"/>
<stop offset="1" stop-color="#333334"/>
</linearGradient>
</defs>
</svg>
