<svg width="24" height="24" viewBox="0 0 24 24" fill="none" xmlns="http://www.w3.org/2000/svg">
<path fill-rule="evenodd" clip-rule="evenodd" d="M7.59777 2.34334C8.33682 2.21606 9.09663 2.21826 9.8427 2.35419C11.1291 2.58859 12.3136 3.20947 13.2382 4.13411C14.1629 5.05874 14.7838 6.24321 15.0182 7.52966C15.1583 8.29902 15.1563 9.08301 15.0167 9.84376C14.8917 10.525 15.0251 11.1231 15.3756 11.4735L20.9419 17.0398C21.4593 17.5573 21.75 18.2591 21.75 18.9909C21.75 19.7226 21.4593 20.4244 20.9419 20.9419C20.4244 21.4593 19.7226 21.75 18.9909 21.75C18.2591 21.75 17.5573 21.4593 17.0398 20.9419L11.4735 15.3756C11.1231 15.0251 10.525 14.8917 9.84376 15.0167C9.08301 15.1563 8.29902 15.1583 7.52966 15.0182C6.24321 14.7838 5.05874 14.1629 4.13411 13.2382C3.20947 12.3136 2.58859 11.1291 2.35419 9.8427C2.21826 9.09663 2.21606 8.33682 2.34334 7.59777C2.45761 6.93431 2.93866 6.49917 3.49797 6.37205C4.03727 6.24948 4.63103 6.41173 5.05794 6.83865L7.60276 9.38346C7.63942 9.41855 7.68824 9.43818 7.73906 9.43818C7.78987 9.43818 7.83869 9.41855 7.87535 9.38346L9.38346 7.87535C9.41855 7.83869 9.43818 7.78987 9.43818 7.73906C9.43818 7.68824 9.41855 7.63941 9.38345 7.60275L6.83864 5.05794C6.41173 4.63102 6.24948 4.03727 6.37205 3.49797C6.49917 2.93866 6.93431 2.45761 7.59777 2.34334ZM9.57382 3.8299C9.00173 3.72566 8.4191 3.72397 7.85237 3.82158C7.845 3.82285 7.83971 3.82421 7.83609 3.82536C7.83566 3.82675 7.8352 3.82842 7.83475 3.83041C7.82792 3.86048 7.83201 3.92999 7.89931 3.99728L10.4531 6.55104C10.764 6.86828 10.9382 7.29483 10.9382 7.73906C10.9382 8.18328 10.764 8.6098 10.453 8.92704L10.4478 8.9324L8.92707 10.4531C8.60983 10.764 8.18328 10.9382 7.73906 10.9382C7.29483 10.9382 6.86831 10.764 6.55107 10.453L6.54571 10.4478L3.99728 7.89931C3.92999 7.83201 3.86048 7.82792 3.83041 7.83475C3.82842 7.8352 3.82675 7.83566 3.82536 7.83609C3.82421 7.83971 3.82285 7.845 3.82158 7.85237C3.72397 8.41911 3.72566 9.00173 3.8299 9.57382C4.00964 10.5603 4.48574 11.4686 5.19477 12.1776C5.90379 12.8866 6.81206 13.3627 7.79853 13.5425C8.38849 13.6499 8.98965 13.6484 9.57304 13.5413C10.5294 13.3659 11.7074 13.4881 12.5342 14.3149L18.1005 19.8812C18.3366 20.1173 18.6569 20.25 18.9909 20.25C19.3248 20.25 19.6451 20.1173 19.8812 19.8812C20.1173 19.6451 20.25 19.3248 20.25 18.9909C20.25 18.6569 20.1173 18.3366 19.8812 18.1005L14.3149 12.5342C13.4881 11.7074 13.3659 10.5294 13.5413 9.57304C13.6484 8.98965 13.6499 8.38849 13.5425 7.79853C13.3627 6.81206 12.8866 5.90379 12.1776 5.19477C11.4686 4.48574 10.5603 4.00964 9.57382 3.8299ZM3.82809 7.82947C3.82811 7.8295 3.8279 7.82995 3.82738 7.83072L3.82809 7.82947ZM7.82946 3.82809C7.82943 3.82806 7.82982 3.8278 7.83071 3.82738L7.82946 3.82809Z" fill="url(#paint0_linear_726_6449)"/>
<defs>
<linearGradient id="paint0_linear_726_6449" x1="3.34941" y1="6.06522" x2="3.34941" y2="21.3261" gradientUnits="userSpaceOnUse">
<stop stop-color="#5C5C5D"/>
<stop offset="1" stop-color="#333334"/>
</linearGradient>
</defs>
</svg>
